<svg version="1.1" xmlns="http://www.w3.org/2000/svg" xmlns:xlink="http://www.w3.org/1999/xlink" width="96.16663" height="73.32621" viewBox="0,0,96.16663,73.32621"><g transform="translate(-185.61621,-137.24633)"><g data-paper-data="{&quot;isPaintingLayer&quot;:true}" fill-rule="nonzero" stroke-linejoin="miter" stroke-miterlimit="10" stroke-dasharray="" stroke-dashoffset="0" style="mix-blend-mode: normal"><path d="M280.78283,176.46987c0,19.69619 -19.6388,33.10267 -42.87587,33.10267c-16.34579,0 -32.26628,-2.34013 -41.90053,-12.47719c-4.06175,-4.27372 -9.1323,-16.99307 -9.39022,-22.83863c-0.25476,-5.77387 3.19413,-1.35263 9.73253,0.95251c0.7334,-4.42819 2.66587,-13.86701 7.26442,-20.83188c4.26428,-6.45859 11.10182,-10.56529 14.48005,-12.11377c7.83878,-3.59307 15.11059,-4.01725 19.81376,-4.01725c23.23708,0 42.87587,18.52734 42.87587,38.22353z" fill="#ffffff" stroke="#000000" stroke-width="2" stroke-linecap="butt"/><path d="M228.99562,167.49809c0,-1.38071 1.11929,-2.5 2.5,-2.5c1.38071,0 2.5,1.11929 2.5,2.5c0,1.38071 -1.11929,2.5 -2.5,2.5c-1.38071,0 -2.5,-1.11929 -2.5,-2.5z" fill="#ffffff" stroke="none" stroke-width="0.5" stroke-linecap="butt"/><path d="M254.95343,168.09916c0,-0.59937 -0.60402,-1.08525 -1.34912,-1.08525c-0.7451,0 -1.34913,0.48588 -1.34913,1.08525c0,0.59937 0.60403,1.08526 1.34913,1.08526c0.7451,0 1.34912,-0.48589 1.34912,-1.08526z" fill="#000000" stroke="#000000" stroke-width="2" stroke-linecap="butt"/><path d="M239.51727,168.69136c0,-0.59937 -0.60402,-1.08525 -1.34912,-1.08525c-0.7451,0 -1.34913,0.48588 -1.34913,1.08525c0,0.59937 0.60403,1.08526 1.34913,1.08526c0.7451,0 1.34912,-0.48589 1.34912,-1.08526z" fill="#000000" stroke="#000000" stroke-width="2" stroke-linecap="butt"/><path d="M200.64102,163.09029l73.73046,-6.01064" fill="none" stroke="#000000" stroke-width="2" stroke-linecap="round"/><path d="M233.49916,159.88462l8.8156,-12.42198l11.62056,11.21985" fill="none" stroke="#000000" stroke-width="2" stroke-linecap="round"/></g></g></svg>