<svg version="1.1" xmlns="http://www.w3.org/2000/svg" xmlns:xlink="http://www.w3.org/1999/xlink" width="106.85118" height="75.35012" viewBox="0,0,106.85118,75.35012"><g transform="translate(-185.61621,-135.22242)"><g data-paper-data="{&quot;isPaintingLayer&quot;:true}" fill-rule="nonzero" stroke-linejoin="miter" stroke-miterlimit="10" stroke-dasharray="" stroke-dashoffset="0" style="mix-blend-mode: normal"><path d="M280.78283,176.46987c0,19.69619 -19.63879,33.10268 -42.87587,33.10268c-16.34579,0 -32.26628,-2.34014 -41.90054,-12.47719c-4.06175,-4.27372 -9.13229,-16.99307 -9.39022,-22.83863c-0.25476,-5.77388 3.19413,-1.35262 9.73253,0.95252c0.7334,-4.42819 2.66587,-13.86701 7.26442,-20.83188c4.26428,-6.4586 11.10182,-10.56529 14.48005,-12.11378c7.83878,-3.59307 15.11059,-4.01725 19.81376,-4.01725c23.23708,0 42.87587,18.52734 42.87587,38.22353z" fill="#ffffff" stroke="#000000" stroke-width="2" stroke-linecap="butt"/><path d="M228.99562,167.49809c0,-1.38071 1.11929,-2.5 2.5,-2.5c1.38071,0 2.5,1.11929 2.5,2.5c0,1.38071 -1.11929,2.5 -2.5,2.5c-1.38071,0 -2.5,-1.11929 -2.5,-2.5z" fill="#ffffff" stroke="none" stroke-width="0.5" stroke-linecap="butt"/><path d="M254.95343,168.09916c0,-0.59937 -0.60402,-1.08525 -1.34912,-1.08525c-0.7451,0 -1.34913,0.48588 -1.34913,1.08525c0,0.59937 0.60403,1.08526 1.34913,1.08526c0.7451,0 1.34912,-0.48589 1.34912,-1.08526z" fill="#000000" stroke="#000000" stroke-width="2" stroke-linecap="butt"/><path d="M239.51727,168.69136c0,-0.59937 -0.60402,-1.08525 -1.34912,-1.08525c-0.7451,0 -1.34913,0.48588 -1.34913,1.08525c0,0.59937 0.60403,1.08526 1.34913,1.08526c0.7451,0 1.34912,-0.48589 1.34912,-1.08526z" fill="#000000" stroke="#000000" stroke-width="2" stroke-linecap="butt"/><path d="M200.64103,163.0903l73.73046,-6.01064" fill="none" stroke="#000000" stroke-width="2" stroke-linecap="round"/><path d="M233.49917,159.88462l8.8156,-12.42198l11.62056,11.21985" fill="none" stroke="#000000" stroke-width="2" stroke-linecap="round"/><path d="M268.33137,158.63712l-10.25144,-5.49794l1.26172,-11.41881l8.98972,-5.49794h14.03659c0,0 8.30211,7.5469 9.09943,8.99323c0.2616,0.47455 -1.52913,8.76936 -1.52913,8.76936l-7.5703,4.65211l-11.67087,5.92086l0.95776,-5.09308z" fill="#ffffff" stroke="#000000" stroke-width="2" stroke-linecap="butt"/><path d="M231.87421,174.33064c0.5547,0.83205 -0.27735,1.38675 -0.27735,1.38675l-0.1047,0.06981c-1.52077,1.01385 -2.90233,1.4479 -3.52658,3.18852c0,0 -0.37139,0.92848 -1.29987,0.55709c-0.92847,-0.37139 -0.55709,-1.29987 -0.55709,-1.29987c0.11854,-0.27652 0.24406,-0.52795 0.37683,-0.75881c-0.30558,-0.42058 -0.09075,-0.95764 -0.09075,-0.95764c0.42142,-0.99981 0.90223,-1.67234 1.49733,-2.26062c-1.4247,0.59239 -2.14857,0.78528 -2.82127,2.22099c0,0 -0.44721,0.89443 -1.34164,0.44721c-0.89443,-0.44721 -0.44721,-1.34164 -0.44721,-1.34164c1.0198,-1.95232 2.07173,-2.40435 4.08739,-3.27542l1.05505,-0.36846c0,0 0.94426,-0.3292 1.27346,0.61506c0.02335,0.06697 0.04029,0.13084 0.05161,0.19172c0.03983,-0.02982 0.08002,-0.05994 0.12058,-0.09037l0.01555,-0.00816c0.19018,-0.28281 0.49913,-0.40639 0.49913,-0.40639c0.93714,-0.36356 1.94098,-0.63008 2.94608,-0.64368h1.43038c0,0 1,0 1,1c0,1 -1,1 -1,1h-1.43038c-0.52854,-0.00999 -1.05794,0.09829 -1.5671,0.26368c-0.07141,0.06948 -0.14183,0.12111 -0.19343,0.1549c0.10575,0.07091 0.20893,0.17276 0.30397,0.31533z" fill="#ffffff" stroke="none" stroke-width="0.5" stroke-linecap="butt"/><path d="M265.37126,151.42712l5.14936,-11.44304l5.43544,12.30126" fill="none" stroke="#000000" stroke-width="2" stroke-linecap="round"/><path d="M268.23202,145.70561l5.14937,0.28608" fill="none" stroke="#000000" stroke-width="2" stroke-linecap="round"/><path d="M285.61113,148.7094c0,1.81695 -1.58499,3.28987 -3.54019,3.28987c-1.95519,0 -3.54019,-1.47293 -3.54019,-3.28987c0,-1.81695 1.585,-3.28987 3.54019,-3.28987c1.95519,0 3.54019,1.47293 3.54019,3.28987z" fill="none" stroke="#000000" stroke-width="2" stroke-linecap="butt"/><path d="M285.96872,147.13598l-0.28608,5.14937" fill="none" stroke="#000000" stroke-width="2" stroke-linecap="round"/></g></g></svg>